<?xml version="1.0" encoding="UTF-8" standalone="no"?>
<svg
   xmlns:dc="http://purl.org/dc/elements/1.1/"
   xmlns:cc="http://creativecommons.org/ns#"
   xmlns:rdf="http://www.w3.org/1999/02/22-rdf-syntax-ns#"
   xmlns:svg="http://www.w3.org/2000/svg"
   xmlns="http://www.w3.org/2000/svg"
   xmlns:sodipodi="http://sodipodi.sourceforge.net/DTD/sodipodi-0.dtd"
   xmlns:inkscape="http://www.inkscape.org/namespaces/inkscape"
   width="20mm"
   height="20mm"
   viewBox="0 0 20 20"
   version="1.1"
   id="svg8"
   inkscape:version="1.0.2 (e86c870879, 2021-01-15)"
   sodipodi:docname="quick-ly.svg"
   inkscape:export-filename="/home/wilbert/bitmap.png"
   inkscape:export-xdpi="325.12"
   inkscape:export-ydpi="325.12">
  <defs
     id="defs2" />
  <sodipodi:namedview
     id="base"
     pagecolor="#ffffff"
     bordercolor="#666666"
     borderopacity="1.0"
     inkscape:pageopacity="0.0"
     inkscape:pageshadow="2"
     inkscape:zoom="5.6"
     inkscape:cx="-2.6586185"
     inkscape:cy="9.4401547"
     inkscape:document-units="mm"
     inkscape:current-layer="layer1"
     inkscape:document-rotation="0"
     showgrid="false"
     fit-margin-top="0"
     fit-margin-left="0"
     fit-margin-right="0"
     fit-margin-bottom="0"
     inkscape:window-width="1913"
     inkscape:window-height="1174"
     inkscape:window-x="2675"
     inkscape:window-y="70"
     inkscape:window-maximized="0" />
  <metadata
     id="metadata5">
    <rdf:RDF>
      <cc:Work
         rdf:about="">
        <dc:format>image/svg+xml</dc:format>
        <dc:type
           rdf:resource="http://purl.org/dc/dcmitype/StillImage" />
        <dc:title></dc:title>
      </cc:Work>
    </rdf:RDF>
  </metadata>
  <g
     inkscape:label="Laag 1"
     inkscape:groupmode="layer"
     id="layer1"
     transform="translate(-2.1634404,-1.0372268)">
    <g
       fill="none"
       stroke="#000000"
       stroke-opacity="1"
       stroke-width="1"
       stroke-linecap="square"
       stroke-linejoin="bevel"
       transform="matrix(0.34958732,0,0,0.34958732,4.7396105,-9.3567936)"
       font-family="'Noto Sans'"
       font-size="41.6667px"
       font-weight="400"
       font-style="normal"
       id="g839"
       style="fill-rule:evenodd" />
    <g
       fill="none"
       stroke="#000000"
       stroke-opacity="1"
       stroke-width="1"
       stroke-linecap="butt"
       stroke-linejoin="miter"
       stroke-miterlimit="10"
       transform="matrix(0.34958732,0,0,-0.34958732,-5.0488546,278.31503)"
       font-family="'Noto Sans'"
       font-size="41.6667px"
       font-weight="400"
       font-style="normal"
       id="g841"
       style="fill-rule:evenodd" />
    <g
       id="g1260"
       transform="matrix(5.1048985,0,0,4.4786164,-21.540344,42.889579)">
      <g
         fill="#000000"
         fill-opacity="1"
         stroke="none"
         transform="matrix(-0.34958732,0,0,-0.34958732,6.6022438,-7.477766)"
         font-family="'Noto Sans'"
         font-size="41.6667px"
         font-weight="400"
         font-style="normal"
         id="g845"
         style="fill-rule:evenodd;stroke-width:1;stroke-linecap:square;stroke-linejoin:bevel">
        <path
           vector-effect="none"
           fill-rule="nonzero"
           d="M 1.4375,4.98438 C 1.59375,5.125 1.79688,5.1875 2,5.1875 2.1875,5.1875 2.375,5.125 2.53125,4.98438 L 4.98438,-3.39063 C 4.875,-3.625 4.54688,-3.625 4.42188,-3.39063 4.28125,-3.09375 3.53125,-2.125 3.20313,-2.125 c -0.57813,0 -0.5,-0.625 -0.6875,-1.1875 -0.17188,-0.46875 -0.625,-0.76563 -1.125,-0.76563 -0.79688,0 -1.45313,0.625 -1.45313,1.42188 0,0.92187 0.8125,1.57812 1.73438,1.57812 0.71875,0 1.42187,-0.20312 2.09375,-0.4375 L 1.4375,4.98438"
           id="path843" />
      </g>
      <g
         fill="#000000"
         fill-opacity="1"
         stroke="none"
         transform="matrix(0.34958732,0,0,0.34958732,6.6022438,-6.7464272)"
         font-family="'Noto Sans'"
         font-size="41.6667px"
         font-weight="400"
         font-style="normal"
         id="g849"
         style="fill-rule:evenodd;stroke-width:1;stroke-linecap:square;stroke-linejoin:bevel">
        <path
           vector-effect="none"
           fill-rule="nonzero"
           d="M 1.4375,4.98438 C 1.59375,5.125 1.79688,5.1875 2,5.1875 2.1875,5.1875 2.375,5.125 2.53125,4.98438 L 4.98438,-3.39063 C 4.875,-3.625 4.54688,-3.625 4.42188,-3.39063 4.28125,-3.09375 3.53125,-2.125 3.20313,-2.125 c -0.57813,0 -0.5,-0.625 -0.6875,-1.1875 -0.17188,-0.46875 -0.625,-0.76563 -1.125,-0.76563 -0.79688,0 -1.45313,0.625 -1.45313,1.42188 0,0.92187 0.8125,1.57812 1.73438,1.57812 0.71875,0 1.42187,-0.20312 2.09375,-0.4375 L 1.4375,4.98438"
           id="path847" />
      </g>
    </g>
    <g
       fill="none"
       stroke="#000000"
       stroke-opacity="1"
       stroke-width="1"
       stroke-linecap="square"
       stroke-linejoin="bevel"
       transform="matrix(0.34958732,0,0,0.34958732,4.7396105,-9.3567936)"
       font-family="'Noto Sans'"
       font-size="41.6667px"
       font-weight="400"
       font-style="normal"
       id="g1039"
       style="fill-rule:evenodd" />
    <g
       fill="none"
       stroke="#000000"
       stroke-opacity="1"
       stroke-width="1"
       stroke-linecap="square"
       stroke-linejoin="bevel"
       transform="matrix(0.34958732,0,0,0.34958732,4.7396105,-9.3567936)"
       font-family="'Noto Sans'"
       font-size="41.6667px"
       font-weight="400"
       font-style="normal"
       id="g1041"
       style="fill-rule:evenodd" />
  </g>
</svg>
